<svg width="60" height="60" viewBox="0 0 60 60" fill="none" xmlns="http://www.w3.org/2000/svg">
<path id="Vector" d="M19.6154 33.4615C18.9308 33.4615 18.2615 33.2585 17.6923 32.8782C17.123 32.4978 16.6793 31.9572 16.4173 31.3247C16.1554 30.6922 16.0868 29.9962 16.2204 29.3247C16.3539 28.6532 16.6836 28.0364 17.1677 27.5523C17.6518 27.0682 18.2686 26.7385 18.9401 26.605C19.6116 26.4714 20.3076 26.54 20.9401 26.8019C21.5726 27.0639 22.1132 27.5076 22.4936 28.0769C22.8739 28.6461 23.0769 29.3154 23.0769 30C23.0769 30.9181 22.7122 31.7985 22.0631 32.4477C21.4139 33.0968 20.5334 33.4615 19.6154 33.4615ZM40.3846 26.5385C39.7 26.5385 39.0307 26.7415 38.4615 27.1218C37.8922 27.5022 37.4486 28.0428 37.1866 28.6753C36.9246 29.3078 36.856 30.0038 36.9896 30.6753C37.1232 31.3468 37.4528 31.9636 37.9369 32.4477C38.421 32.9318 39.0378 33.2615 39.7093 33.395C40.3808 33.5286 41.0768 33.46 41.7093 33.198C42.3418 32.936 42.8824 32.4924 43.2628 31.9231C43.6431 31.3539 43.8462 30.6846 43.8462 30C43.8462 29.0819 43.4815 28.2015 42.8323 27.5523C42.1831 26.9032 41.3027 26.5385 40.3846 26.5385ZM36.8452 39.5856C34.7899 40.8612 32.419 41.5371 30 41.5371C27.581 41.5371 25.2101 40.8612 23.1548 39.5856C22.6369 39.2589 22.0104 39.1513 21.4132 39.2866C20.8159 39.4218 20.2969 39.7888 19.9702 40.3067C19.6435 40.8247 19.536 41.4511 19.6712 42.0484C19.8065 42.6456 20.1734 43.1647 20.6914 43.4913C23.4841 45.2323 26.7091 46.1552 30 46.1552C33.2909 46.1552 36.5159 45.2323 39.3087 43.4913C39.8266 43.1647 40.1935 42.6456 40.3288 42.0484C40.464 41.4511 40.3565 40.8247 40.0298 40.3067C39.7031 39.7888 39.1841 39.4218 38.5869 39.2866C37.9896 39.1513 37.3631 39.2589 36.8452 39.5856ZM60 30C60 35.9334 58.2405 41.7336 54.9441 46.6671C51.6476 51.6006 46.9623 55.4457 41.4805 57.7164C35.9987 59.987 29.9667 60.5811 24.1473 59.4235C18.3279 58.266 12.9824 55.4088 8.78681 51.2132C4.59123 47.0176 1.73401 41.6721 0.576455 35.8527C-0.581101 30.0333 0.0129986 24.0013 2.28363 18.5195C4.55426 13.0377 8.39943 8.35235 13.3329 5.05591C18.2664 1.75947 24.0666 0 30 0C37.9539 0.00839948 45.5797 3.1718 51.2039 8.79607C56.8282 14.4203 59.9916 22.0461 60 30ZM55.3846 30C55.3766 23.4653 52.852 17.1848 48.335 12.4626C43.818 7.74046 37.6558 4.93948 31.1279 4.64135C27.7846 9.34038 27.6923 13.8115 27.6923 13.8462C27.6923 14.4582 27.9354 15.0452 28.3682 15.4779C28.801 15.9107 29.388 16.1538 30 16.1538C30.612 16.1538 31.199 15.9107 31.6318 15.4779C32.0646 15.0452 32.3077 14.4582 32.3077 13.8462C32.3077 13.2341 32.5508 12.6471 32.9836 12.2144C33.4164 11.7816 34.0034 11.5385 34.6154 11.5385C35.2274 11.5385 35.8144 11.7816 36.2472 12.2144C36.68 12.6471 36.9231 13.2341 36.9231 13.8462C36.9231 15.6823 36.1937 17.4432 34.8954 18.7415C33.597 20.0398 31.8361 20.7692 30 20.7692C28.1639 20.7692 26.403 20.0398 25.1047 18.7415C23.8063 17.4432 23.0769 15.6823 23.0769 13.8462C23.0769 13.6356 23.1144 9.72115 25.5173 5.01058C20.7645 5.86328 16.3535 8.05389 12.8019 11.3254C9.25026 14.5968 6.7054 18.8134 5.46593 23.4803C4.22646 28.1472 4.34379 33.0708 5.80415 37.6734C7.26452 42.276 10.0073 46.3666 13.7107 49.4652C17.4141 52.5637 21.9245 54.5417 26.7125 55.1671C31.5006 55.7924 36.3677 55.0392 40.7427 52.9957C45.1176 50.9522 48.819 47.7033 51.4125 43.6302C54.006 39.557 55.3839 34.8287 55.3846 30Z" fill="#018C0D"/>
</svg>
