<svg width="60" height="74" viewBox="0 0 60 74" fill="none" xmlns="http://www.w3.org/2000/svg">
<path d="M60 0V73.8462H9.23077C7.95673 73.8462 6.76683 73.6058 5.66106 73.125C4.55529 72.6442 3.56971 71.9832 2.70433 71.1418C1.83894 70.3005 1.17788 69.3269 0.721154 68.2212C0.264423 67.1154 0.0240385 65.9135 0 64.6154V9.23077C0 8.05288 0.252404 6.91106 0.757212 5.80529C1.26202 4.69952 1.94712 3.71394 2.8125 2.84856C3.67788 1.98317 4.66346 1.29808 5.76923 0.793269C6.875 0.288462 8.02885 0.0240385 9.23077 0H60ZM55.3846 60H9.23077C8.58173 60 7.98077 60.1202 7.42788 60.3606C6.875 60.601 6.39423 60.9255 5.98558 61.3341C5.57692 61.7428 5.24038 62.2356 4.97596 62.8125C4.71154 63.3894 4.59135 63.9904 4.61538 64.6154C4.61538 65.2644 4.73558 65.8654 4.97596 66.4183C5.21635 66.9712 5.54087 67.4519 5.94952 67.8606C6.35817 68.2692 6.85096 68.6058 7.42788 68.8702C8.00481 69.1346 8.60577 69.2548 9.23077 69.2308H55.3846V60ZM4.61538 56.6106C6.05769 55.7933 7.59615 55.3846 9.23077 55.3846H55.3846V4.61538H9.23077C8.67788 4.61538 8.125 4.7476 7.57212 5.01202C7.01923 5.27644 6.52644 5.63702 6.09375 6.09375C5.66106 6.55048 5.3125 7.04327 5.04808 7.57212C4.78365 8.10096 4.63942 8.65385 4.61538 9.23077V56.6106ZM13.8462 13.8462H46.1538V27.6923H13.8462V13.8462ZM18.4615 23.0769H41.5385V18.4615H18.4615V23.0769Z" fill="#018C0D"/>
</svg>
