<svg width="60" height="58" viewBox="0 0 60 58" fill="none" xmlns="http://www.w3.org/2000/svg">
<path id="Vector" d="M1.89502 28.4253H9.47508C10.0133 28.4253 10.4643 28.6059 10.8281 28.9672C11.1894 29.3311 11.3701 29.7821 11.3701 30.3203C11.3701 30.8585 11.1894 31.3095 10.8281 31.6733C10.4643 32.0346 10.0133 32.2153 9.47508 32.2153H1.89502C1.35683 32.2153 0.905817 32.0346 0.541974 31.6733C0.180658 31.3095 0 30.8585 0 30.3203C0 29.7821 0.180658 29.3311 0.541974 28.9672C0.905817 28.6059 1.35683 28.4253 1.89502 28.4253ZM10.2331 49.6191L15.5088 44.3434C15.8777 43.9745 16.3136 43.7812 16.8164 43.7635C17.3167 43.7458 17.7753 43.9391 18.1922 44.3434C18.6091 44.7603 18.8213 45.2113 18.8289 45.6964C18.8365 46.179 18.6318 46.6288 18.2149 47.0457L12.9354 52.3252C12.5665 52.6941 12.1281 52.8874 11.6202 52.9051C11.1149 52.9202 10.6525 52.7194 10.2331 52.3025C9.82882 51.8856 9.62416 51.4383 9.6191 50.9608C9.61152 50.4858 9.81618 50.0386 10.2331 49.6191ZM15.5088 16.2972L10.2331 11.0214C9.86419 10.6525 9.6709 10.2167 9.65321 9.71388C9.63553 9.2136 9.82882 8.755 10.2331 8.3381C10.65 7.92119 11.101 7.70895 11.5861 7.70137C12.0687 7.69379 12.5185 7.89845 12.9354 8.31536L18.2149 13.5949C18.5838 13.9638 18.7771 14.4021 18.7948 14.91C18.8099 15.4154 18.6091 15.8777 18.1922 16.2972C17.7753 16.7014 17.328 16.9074 16.8505 16.9149C16.3755 16.92 15.9282 16.7141 15.5088 16.2972ZM54.8531 56.896L39.8674 41.9102L37.8283 48.2509C37.702 48.5946 37.5011 48.8649 37.2257 49.062C36.9503 49.2591 36.6471 49.3576 36.3161 49.3576C35.9851 49.3576 35.6945 49.2565 35.4444 49.0544C35.1968 48.8498 35.0098 48.5743 34.8835 48.2282L29.2136 29.5812C29.0872 29.1264 29.0784 28.7196 29.187 28.3608C29.2957 27.9995 29.5079 27.6609 29.8238 27.3451C30.1396 27.0293 30.4782 26.817 30.8395 26.7084C31.1983 26.5997 31.6063 26.6086 32.0637 26.7349L51.1882 32.4768C51.5318 32.6031 51.8022 32.7926 51.9992 33.0453C52.1963 33.2929 52.2949 33.5835 52.2949 33.917C52.2949 34.2505 52.2127 34.5399 52.0485 34.7849C51.8818 35.0351 51.6266 35.2233 51.2829 35.3497L44.7224 37.726L59.079 52.0827C59.693 52.6966 60 53.4117 60 54.2278C60 55.0439 59.693 55.7577 59.079 56.3692L58.556 56.896C58.0406 57.4089 57.424 57.6654 56.7065 57.6654C55.9864 57.6654 55.3686 57.4089 54.8531 56.896ZM30.7561 9.47511V1.89504C30.7561 1.35686 30.938 0.905843 31.3019 0.542C31.6657 0.178157 32.1155 -0.00250055 32.6511 2.61382e-05C33.1918 2.61382e-05 33.6429 0.180684 34.0042 0.542C34.3655 0.903317 34.5461 1.35433 34.5461 1.89504V9.47511C34.5461 10.0133 34.3655 10.4643 34.0042 10.8281C33.6429 11.192 33.1918 11.3727 32.6511 11.3701C32.1129 11.3701 31.6632 11.1895 31.3019 10.8281C30.9406 10.4668 30.7586 10.0158 30.7561 9.47511ZM47.0912 13.5949L52.3896 8.29262C52.7434 7.93888 53.1742 7.74685 53.682 7.71653C54.1899 7.68368 54.6535 7.87571 55.073 8.29262C55.4772 8.69689 55.6819 9.14032 55.687 9.62292C55.6945 10.108 55.4974 10.5591 55.0957 10.976L49.7934 16.2972C49.4397 16.6661 49.0102 16.8594 48.5048 16.877C47.9944 16.8947 47.5308 16.7014 47.1139 16.2972C46.6945 15.8803 46.481 15.4292 46.4734 14.9441C46.4683 14.4615 46.6742 14.0118 47.0912 13.5949Z" fill="#018C0D"/>
</svg>
