<svg width="60" height="60" viewBox="0 0 60 60" fill="none" xmlns="http://www.w3.org/2000/svg">
<g id="uiw:smile-o" clip-path="url(#clip0_358_1747)">
<path id="Vector" d="M30 0C46.569 0 60 13.431 60 30C60 46.569 46.569 60 30 60C13.431 60 0 46.569 0 30C0 13.431 13.431 0 30 0ZM30 4.185C23.1534 4.185 16.5873 6.90479 11.746 11.746C6.90479 16.5873 4.185 23.1534 4.185 30C4.185 36.8466 6.90479 43.4127 11.746 48.254C16.5873 53.0952 23.1534 55.815 30 55.815C36.8466 55.815 43.4127 53.0952 48.254 48.254C53.0952 43.4127 55.815 36.8466 55.815 30C55.815 23.1534 53.0952 16.5873 48.254 11.746C43.4127 6.90479 36.8466 4.185 30 4.185ZM23.232 36C23.435 37.6478 24.2321 39.1649 25.4739 40.2668C26.7158 41.3687 28.3169 41.9798 29.9772 41.9853C31.6374 41.9908 33.2426 41.3905 34.4917 40.2968C35.7408 39.2032 36.5481 37.6914 36.762 36.045C36.7927 35.7759 36.8766 35.5155 37.0087 35.279C37.1409 35.0426 37.3186 34.8347 37.5318 34.6675C37.7449 34.5003 37.9891 34.377 38.2502 34.3049C38.5113 34.2328 38.7841 34.2133 39.0528 34.2474C39.3215 34.2816 39.5808 34.3688 39.8156 34.5039C40.0503 34.6391 40.2559 34.8195 40.4204 35.0347C40.5849 35.2499 40.705 35.4957 40.7738 35.7577C40.8425 36.0197 40.8586 36.2927 40.821 36.561C40.4803 39.1968 39.1892 41.6177 37.1901 43.3691C35.1911 45.1205 32.6215 46.082 29.9637 46.0732C27.306 46.0643 24.7429 45.0857 22.7555 43.3211C20.7681 41.5564 19.4932 39.127 19.17 36.489C19.1326 36.2198 19.1493 35.9458 19.219 35.6831C19.2887 35.4204 19.41 35.1742 19.5759 34.9589C19.7418 34.7436 19.9489 34.5635 20.1852 34.4291C20.4215 34.2948 20.6822 34.2088 20.952 34.1764C21.2219 34.1439 21.4955 34.1655 21.7569 34.2399C22.0183 34.3144 22.2623 34.4401 22.4746 34.6099C22.6868 34.7797 22.8631 34.9901 22.9932 35.2287C23.1232 35.4674 23.2044 35.7296 23.232 36ZM17.442 18.84C18.5519 18.84 19.6164 19.2809 20.4012 20.0658C21.1861 20.8506 21.627 21.9151 21.627 23.025C21.627 24.1349 21.1861 25.1994 20.4012 25.9842C19.6164 26.7691 18.5519 27.21 17.442 27.21C16.3321 27.21 15.2676 26.7691 14.4828 25.9842C13.6979 25.1994 13.257 24.1349 13.257 23.025C13.257 21.9151 13.6979 20.8506 14.4828 20.0658C15.2676 19.2809 16.3321 18.84 17.442 18.84ZM42.558 18.84C43.6679 18.84 44.7324 19.2809 45.5172 20.0658C46.3021 20.8506 46.743 21.9151 46.743 23.025C46.743 24.1349 46.3021 25.1994 45.5172 25.9842C44.7324 26.7691 43.6679 27.21 42.558 27.21C41.4481 27.21 40.3836 26.7691 39.5988 25.9842C38.8139 25.1994 38.373 24.1349 38.373 23.025C38.373 21.9151 38.8139 20.8506 39.5988 20.0658C40.3836 19.2809 41.4481 18.84 42.558 18.84Z" fill="#018C0D"/>
</g>
<defs>
<clipPath id="clip0_358_1747">
<rect width="60" height="60" fill="white"/>
</clipPath>
</defs>
</svg>
