<svg width="150" height="29" viewBox="0 0 150 29" fill="none" xmlns="http://www.w3.org/2000/svg">
<path d="M62.3789 3.82812V25.2031H59.3555V3.82812H62.3789ZM50.8008 5.32812C54.0117 5.32812 56.4023 8.28125 56.4023 12.9219C56.4023 17.6094 54.0117 20.5391 50.8008 20.5391C47.5195 20.5391 45.1289 17.6094 45.1523 12.9219C45.1289 8.28125 47.5195 5.32812 50.8008 5.32812ZM50.8008 8.02344C49.1367 8.02344 48.0352 9.75781 48.0352 12.9219C48.0352 16.1094 49.1367 17.8203 50.8008 17.8203C52.418 17.8203 53.5195 16.1094 53.5195 12.9219C53.5195 9.75781 52.418 8.02344 50.8008 8.02344ZM71.1445 5.32812C74.0273 5.32812 76.1719 7.70703 76.6055 11.5391H80.3086V3.82812H83.2617V25.2031H80.3086V13.9297H76.6289C76.3125 18.0312 74.1211 20.5391 71.1445 20.5391C67.9102 20.5391 65.5898 17.6094 65.6133 12.9219C65.5898 8.28125 67.9102 5.32812 71.1445 5.32812ZM71.1445 8.02344C69.5508 8.02344 68.4492 9.75781 68.4727 12.9219C68.4492 16.1094 69.5508 17.8203 71.1445 17.8203C72.7617 17.8203 73.8164 16.1094 73.8164 12.9219C73.8164 9.75781 72.7617 8.02344 71.1445 8.02344ZM103.699 4.57812V6.92188H97.8867C98.4023 8.42188 100.57 9.875 104.637 10.2031L103.582 12.5703C99.5508 12.1836 96.8438 10.6719 95.707 8.58594C94.5703 10.6602 91.8984 12.1953 87.8555 12.5703L86.8711 10.2031C90.8438 9.875 93.0234 8.42188 93.5508 6.92188H87.7852V4.57812H103.699ZM103.137 17.6562V24.9219H88.2539V17.6562H94.2305V15.7109H86.0039V13.3203H105.457V15.7109H97.207V17.6562H103.137ZM91.207 20.0234V22.5312H100.207V20.0234H91.207Z" fill="#018C0D"/>
<path d="M38.627 13.1852C38.66 13.0672 38.699 12.9522 38.727 12.8322C38.733 12.8082 38.735 12.7842 38.741 12.7602C39.0266 11.6071 39.0255 10.4015 38.7377 9.24891C38.4499 8.09629 37.8842 7.03172 37.09 6.14822C36.3576 5.16345 35.4034 4.3652 34.3048 3.81825C33.2062 3.27129 31.9942 2.99104 30.767 3.00022H30.715C30.615 3.00022 30.503 3.00722 30.397 3.01022H30.276C28.1625 3.12682 26.0618 3.4124 23.994 3.86422L19.517 3.14922H19.482C17.3496 2.78082 15.1553 3.13264 13.245 4.14922C12.1688 4.79782 11.2445 5.6702 10.535 6.70722L10.494 6.76222L10.469 6.79722C9.53022 8.18978 9.01975 9.82674 9.00056 11.5061C8.98137 13.1854 9.45429 14.8336 10.361 16.2472C10.342 16.2812 10.331 16.3192 10.313 16.3542C10.2263 16.5276 10.1524 16.7071 10.092 16.8912C10.06 16.9912 10.036 17.0972 10.013 17.2012C9.99497 17.2862 9.97697 17.3702 9.96497 17.4552C9.95263 17.5611 9.94529 17.6676 9.94297 17.7742C9.94297 17.8602 9.93297 17.9442 9.93697 18.0292C9.94397 18.1412 9.95697 18.2522 9.97497 18.3632C9.98697 18.4422 9.99297 18.5212 10.011 18.5992C10.041 18.7222 10.081 18.8432 10.127 18.9612C10.15 19.0242 10.165 19.0892 10.193 19.1512C10.275 19.3342 10.375 19.5072 10.493 19.6692C10.9454 20.3171 11.613 20.7834 12.377 20.9852C12.3485 21.4116 12.4194 21.8388 12.5843 22.2331C12.7492 22.6274 13.0034 22.978 13.327 23.2572C13.9 23.7593 14.6028 24.0899 15.355 24.2112C15.51 24.7142 15.782 25.1732 16.148 25.5512C16.6473 26.0926 17.3222 26.4398 18.053 26.5312C18.227 27.1242 18.557 27.6602 19.009 28.0812C19.566 28.6292 20.312 28.9412 21.093 28.9512C21.6673 28.9485 22.2315 28.7991 22.732 28.5172C23.476 28.9432 24.348 29.0872 25.19 28.9232C25.6319 28.8423 26.0507 28.6652 26.4165 28.4045C26.7824 28.1437 27.0864 27.8056 27.307 27.4142C27.328 27.3812 27.34 27.3522 27.359 27.3192C28.209 27.4932 29.094 27.3402 29.837 26.8912C30.4904 26.5223 30.9878 25.929 31.237 25.2212C32.131 25.2332 32.997 24.9112 33.664 24.3162C34.0294 23.9968 34.3132 23.5946 34.4917 23.1432C34.6702 22.6918 34.7382 22.2042 34.69 21.7212C34.69 21.6932 34.683 21.6712 34.681 21.6442C35.2029 21.4878 35.6723 21.1922 36.039 20.7892C36.513 20.2894 36.8181 19.6534 36.9114 18.9709C37.0047 18.2885 36.8814 17.5939 36.559 16.9852C37.458 15.9464 38.1382 14.737 38.559 13.4292C38.583 13.3522 38.603 13.2682 38.627 13.1852ZM36.915 11.4852C36.8651 11.988 36.7546 12.4829 36.586 12.9592L36.554 13.0592C36.2217 13.9488 35.7423 14.7764 35.136 15.5072C31.999 12.7692 27.436 8.77322 27.061 8.41522C26.6278 8.00063 26.0525 7.76737 25.453 7.76322C25.267 7.76161 25.0819 7.78825 24.904 7.84222C24.27 8.04222 22.712 8.54222 21.352 9.04722C20.832 9.24022 20.238 8.74722 20.057 8.32722C19.937 8.07522 19.917 7.78722 19.999 7.52122C20.162 7.22622 20.436 7.00722 20.76 6.91322C23.8362 5.83184 27.0502 5.19214 30.306 5.01322H30.427C30.538 5.01322 30.648 5.00522 30.75 5.00322C31.4969 4.99093 32.2384 5.13148 32.929 5.41622C33.9531 5.88303 34.8522 6.58549 35.553 7.46622C36.1785 8.17413 36.6159 9.02799 36.825 9.94922L36.834 9.99522C36.8821 10.2414 36.9125 10.4907 36.925 10.7412C36.928 10.8222 36.933 10.9242 36.933 11.0142C36.933 11.1592 36.933 11.3032 36.916 11.4462L36.915 11.4852ZM11.96 18.1442C11.953 18.1012 11.953 18.0542 11.953 18.0092C11.9419 17.9129 11.9419 17.8156 11.953 17.7192C11.964 17.6624 11.9784 17.6063 11.996 17.5512C12.016 17.4622 12.046 17.3752 12.082 17.2922C12.115 17.2322 12.153 17.1742 12.195 17.1202C12.2545 17.0227 12.3268 16.9336 12.41 16.8552L12.416 16.8502L14.297 15.2552C14.4219 15.159 14.5647 15.0883 14.717 15.0473C14.8693 15.0063 15.0282 14.9957 15.1846 15.0161C15.341 15.0365 15.4918 15.0876 15.6285 15.1664C15.7651 15.2452 15.8849 15.3501 15.981 15.4752C16.0509 15.5776 16.0963 15.6948 16.1137 15.8175C16.131 15.9403 16.1198 16.0655 16.081 16.1832L13.131 19.0572C12.9273 19.0609 12.7262 19.0117 12.5473 18.9144C12.3683 18.8171 12.2176 18.6751 12.11 18.5022C12.0357 18.3946 11.9846 18.2727 11.96 18.1442ZM14.476 20.5392L17.713 17.3852L17.698 17.3702C17.8801 17.2795 18.0858 17.2474 18.287 17.2782C18.544 17.3482 18.776 17.4922 18.953 17.6922C19.129 17.8422 19.247 18.0482 19.287 18.2762C19.3018 18.5072 19.2512 18.7377 19.141 18.9412C19.1308 18.9691 19.1221 18.9974 19.115 19.0262L15.844 22.2132C15.6145 22.2232 15.3855 22.1838 15.1726 22.0975C14.9596 22.0112 14.7678 21.8802 14.61 21.7132C14.4801 21.5496 14.3987 21.3529 14.375 21.1454C14.3513 20.9379 14.3863 20.7279 14.476 20.5392ZM17.261 23.6242L20.641 20.3352C20.856 20.3782 21.053 20.4882 21.203 20.6492C21.4103 20.8307 21.5545 21.0734 21.615 21.3422C21.6308 21.4579 21.6257 21.5754 21.6 21.6892L18.677 24.5342C18.482 24.5704 18.2809 24.5564 18.0929 24.4934C17.9048 24.4304 17.7358 24.3206 17.602 24.1742C17.4458 24.0209 17.3288 23.8323 17.261 23.6242ZM20.398 26.6362C20.2171 26.4765 20.0743 26.2783 19.98 26.0562L22.741 23.3692C22.938 23.4342 23.118 23.5412 23.269 23.6822C23.41 23.7948 23.5164 23.9449 23.576 24.1152C23.6099 24.2413 23.6099 24.3741 23.576 24.5002C23.4511 24.9036 23.2429 25.2763 22.965 25.5942L22.209 26.4742H22.215C22.19 26.4902 22.162 26.4972 22.139 26.5152C21.857 26.7725 21.4942 26.9235 21.113 26.9422C20.8438 26.9377 20.5871 26.8278 20.398 26.6362ZM24.872 26.9432C24.724 26.9662 24.575 26.9732 24.426 26.9632L24.5 26.8772L24.524 26.8482L24.525 26.8492C24.8281 26.4746 25.0846 26.0646 25.289 25.6282L25.731 26.0962C25.6948 26.1904 25.6513 26.2817 25.601 26.3692C25.5297 26.513 25.4273 26.6391 25.3012 26.7384C25.1751 26.8377 25.0285 26.9077 24.872 26.9432ZM31.272 23.2182L29.493 21.2472C29.3402 21.0685 29.1293 20.9494 28.8974 20.9108C28.6654 20.8722 28.4273 20.9167 28.2249 21.0364C28.0226 21.1561 27.8689 21.3434 27.791 21.5652C27.7131 21.7871 27.7159 22.0293 27.799 22.2492C27.8453 22.3739 27.916 22.4882 28.007 22.5852L29.443 24.1852C29.433 24.2872 29.412 24.3882 29.38 24.4852C29.2967 24.7685 29.1067 25.0083 28.85 25.1542C28.5373 25.3593 28.1579 25.4366 27.79 25.3702L26.59 24.0962C26.4604 23.96 26.2948 23.8633 26.1125 23.8174C25.9302 23.7716 25.7386 23.7785 25.56 23.8372C25.5445 23.7401 25.5235 23.6439 25.497 23.5492C25.3319 23.0267 25.0248 22.5603 24.61 22.2022C24.3194 21.9371 23.9864 21.7224 23.625 21.5672C23.6319 21.3812 23.6202 21.1949 23.59 21.0112C23.461 20.3302 23.1189 19.7079 22.613 19.2342C22.2452 18.8619 21.7905 18.5869 21.29 18.4342C21.295 18.3002 21.29 18.1672 21.275 18.0342C21.1815 17.3607 20.8595 16.7397 20.363 16.2752C19.9108 15.8018 19.3299 15.4712 18.692 15.3242C18.475 15.2823 18.2536 15.2672 18.033 15.2792C17.9545 14.9078 17.7958 14.5579 17.568 14.2542C17.3112 13.9208 16.9913 13.6413 16.6264 13.4318C16.2615 13.2222 15.8589 13.0866 15.4416 13.0328C15.0242 12.979 14.6004 13.0081 14.1943 13.1183C13.7882 13.2286 13.4078 13.4178 13.075 13.6752L13.04 13.7032L11.805 14.7432C11.2259 13.6887 10.9488 12.4949 11.0042 11.2931C11.0596 10.0913 11.4453 8.92801 12.119 7.93122L12.14 7.90122C12.6875 7.08483 13.4057 6.397 14.245 5.88522C15.7759 5.08789 17.529 4.82363 19.227 5.13422L19.691 5.20822C19.0054 5.51712 18.4579 6.06791 18.153 6.75522C18.0056 7.13232 17.9355 7.5352 17.9468 7.93992C17.9581 8.34464 18.0507 8.74296 18.219 9.11122C18.5185 9.83574 19.0772 10.4227 19.786 10.7577C20.4948 11.0927 21.303 11.1517 22.053 10.9232C23.373 10.4342 24.887 9.94322 25.453 9.76422C25.498 9.76274 25.5427 9.7714 25.5839 9.78958C25.6251 9.80776 25.6617 9.83498 25.691 9.86922C26.18 10.3292 32.083 15.4962 34.549 17.6452L34.749 17.8162C34.9043 18.0677 34.9706 18.3641 34.9375 18.6578C34.9043 18.9516 34.7735 19.2257 34.566 19.4362C34.4235 19.5898 34.2363 19.6947 34.031 19.7362L32.298 17.9792C32.1094 17.7997 31.8584 17.7004 31.598 17.7025C31.3376 17.7045 31.0881 17.8076 30.9023 17.99C30.7165 18.1725 30.6089 18.42 30.6021 18.6803C30.5953 18.9406 30.6899 19.1933 30.866 19.3852L32.522 21.0632C32.529 21.0932 32.537 21.1232 32.546 21.1522L32.558 21.1832C32.633 21.3967 32.6785 21.6194 32.693 21.8452C32.7207 22.0167 32.706 22.1923 32.65 22.3567C32.594 22.5212 32.4986 22.6693 32.372 22.7882C32.073 23.0682 31.678 23.2222 31.269 23.2182H31.272Z" fill="#018C0D"/>
</svg>
